<svg width="39" height="36" viewBox="0 0 39 36" fill="none" xmlns="http://www.w3.org/2000/svg">
<path fill-rule="evenodd" clip-rule="evenodd" d="M31.0312 17.3025C33.5881 17.6775 35.5456 18.615 36.904 20.115C38.2798 21.6597 39.0277 23.6673 38.9992 25.74C38.9992 28.8738 37.9438 31.4292 35.695 33.1587C33.4462 34.8879 30.2026 36 25.9612 36H9.27963V25.7142H16.6368V30.2142H25.3213C27.3079 30.2142 28.8049 29.6742 29.7997 28.8546C30.7945 28.035 31.2934 26.73 31.2934 25.2C31.2934 23.67 30.7882 22.635 29.7997 21.8346C28.8112 21.0342 27.3142 20.8929 25.3213 20.8929H0V15.1071H9.27642V0H25.4335C29.71 0 32.8672 0.55608 34.969 2.25C37.0705 3.94392 38.0878 6.0975 38.0878 9.2667C38.0989 11.1729 37.4395 13.0218 36.226 14.4867C35.0296 15.9621 33.2704 16.8846 31.0312 17.2479V17.3025ZM16.6368 15.0942H24.397C28.3858 15.0942 30.3787 13.5288 30.3787 10.4337C30.3787 7.33821 28.3858 5.77287 24.397 5.77287H16.6368V15.0942Z" fill="#F04086"/>
</svg>
