<svg width="26" height="26" viewBox="0 0 26 26" fill="none" xmlns="http://www.w3.org/2000/svg">
<path fill-rule="evenodd" clip-rule="evenodd" d="M-1.54279 21.7458C10.728 23.1847 19.3027 14.1262 23.5707 3.41468C23.6443 3.23084 23.8534 3.14049 24.0372 3.21414C24.221 3.28779 24.3114 3.4968 24.2377 3.68064C19.8509 14.6924 10.9876 23.9381 -1.62689 22.4587C-1.82346 22.4361 -1.96421 22.2576 -1.94132 22.0602C-1.91867 21.8636 -1.74023 21.7229 -1.54279 21.7458Z" fill="#FFA161"/>
<path fill-rule="evenodd" clip-rule="evenodd" d="M23.8246 3.74875C23.3331 4.14426 22.7216 4.64745 22.6506 4.70253C20.7253 6.19516 18.6715 7.30912 16.3839 8.16152C16.1984 8.23093 15.9911 8.13599 15.9217 7.9504C15.8523 7.76482 15.9472 7.55762 16.1328 7.4882C18.3514 6.66234 20.3434 5.58253 22.2109 4.13442C22.3198 4.05009 23.6935 2.91808 23.9885 2.71005C24.1091 2.62415 24.204 2.61303 24.2266 2.61253C24.3468 2.60532 24.4275 2.65041 24.4826 2.69706C24.5443 2.75019 24.6249 2.86275 24.6333 3.04137C24.6414 3.22835 24.5632 3.61831 24.5514 3.71834C24.3776 5.22814 24.0521 6.89805 24.0654 8.50111C24.0779 10.0299 24.3989 11.4996 25.5136 12.6858C25.6494 12.83 25.6419 13.0578 25.4976 13.1937C25.3533 13.3295 25.1255 13.322 24.9897 13.1777C23.7437 11.8513 23.361 10.2158 23.3469 8.50745C23.3339 6.91385 23.6449 5.25602 23.8246 3.74875Z" fill="#FFA161"/>
</svg>
