<svg width="15" height="14" viewBox="0 0 15 14" fill="none" xmlns="http://www.w3.org/2000/svg">
<path fill-rule="evenodd" clip-rule="evenodd" d="M6.56898 0.00408648C6.71762 0.00385386 6.87752 0.00392562 7.05008 0.00400305L7.3345 0.00408648C9.61292 0.00408648 9.88297 0.0122643 10.7827 0.0531537C11.6147 0.0911985 12.0663 0.230222 12.3671 0.347023C12.7653 0.501692 13.0492 0.686582 13.3477 0.985252C13.6464 1.28392 13.8313 1.56837 13.9863 1.9666C14.1031 2.26704 14.2423 2.7186 14.2802 3.55061C14.3211 4.45018 14.3299 4.7204 14.3299 6.99776C14.3299 9.27512 14.3211 9.54534 14.2802 10.4449C14.2421 11.2769 14.1031 11.7285 13.9863 12.0289C13.8316 12.4271 13.6464 12.7107 13.3477 13.0092C13.049 13.3079 12.7655 13.4928 12.3671 13.6474C12.0666 13.7648 11.6147 13.9034 10.7827 13.9415C9.88314 13.9824 9.61292 13.9913 7.3345 13.9913C5.05589 13.9913 4.78585 13.9824 3.88628 13.9415C3.05427 13.9031 2.60271 13.7641 2.30173 13.6472C1.90351 13.4926 1.61906 13.3077 1.32039 13.009C1.02172 12.7104 0.836828 12.4266 0.681804 12.0282C0.565003 11.7278 0.425801 11.2762 0.387934 10.4442C0.347045 9.54463 0.338867 9.2744 0.338867 6.99563C0.338867 4.71685 0.347045 4.44804 0.387934 3.54848C0.425979 2.71647 0.565003 2.26491 0.681804 1.96411C0.836472 1.56588 1.02172 1.28143 1.32039 0.982763C1.61906 0.684094 1.90351 0.499203 2.30173 0.344179C2.60254 0.226844 3.05427 0.0881762 3.88628 0.0499536C4.67349 0.0143977 4.97856 0.00373092 6.56898 0.00195312V0.00408648ZM11.8894 1.4206C11.3241 1.4206 10.8654 1.87874 10.8654 2.44426C10.8654 3.0096 11.3241 3.46827 11.8894 3.46827C12.4547 3.46827 12.9134 3.0096 12.9134 2.44426C12.9134 1.87892 12.4547 1.42025 11.8894 1.42025V1.4206ZM2.9523 6.9988C2.9523 4.57875 4.91436 2.61663 7.33439 2.61654C9.75451 2.61654 11.7161 4.57869 11.7161 6.9988C11.7161 9.41892 9.75468 11.3802 7.33457 11.3802C4.91445 11.3802 2.9523 9.41892 2.9523 6.9988Z" fill="#FFA161"/>
</svg>
